<?xml version="1.0" encoding="utf-8"?>
<!-- Generator: Adobe Illustrator 23.0.3, SVG Export Plug-In . SVG Version: 6.00 Build 0)  -->
<svg version="1.1" id="Layer_1" xmlns="http://www.w3.org/2000/svg" xmlns:xlink="http://www.w3.org/1999/xlink" x="0px" y="0px"
	 viewBox="0 0 30 30" style="enable-background:new 0 0 30 30;" xml:space="preserve">
<style type="text/css">
	.st0{fill:#FFFFFF;}
</style>
<g>
	<path class="st0" d="M15.11,11.83c-1.18,0-2.14,0.96-2.14,2.14c0,1.18,0.96,2.14,2.14,2.14c1.18,0,2.14-0.96,2.14-2.14
		C17.25,12.79,16.29,11.83,15.11,11.83z"/>
	<path class="st0" d="M15,2.61C8.16,2.61,2.61,8.16,2.61,15S8.16,27.39,15,27.39S27.39,21.84,27.39,15S21.84,2.61,15,2.61z
		 M17.93,20.2c-1.26,1.45-2.51,2.28-2.56,2.31c-0.08,0.05-0.17,0.08-0.26,0.08c-0.09,0-0.18-0.03-0.26-0.08
		c-0.05-0.03-1.3-0.86-2.56-2.31c-1.69-1.94-2.58-4.1-2.58-6.23c0-2.98,2.42-5.4,5.4-5.4c2.98,0,5.4,2.42,5.4,5.4
		C20.51,16.1,19.62,18.25,17.93,20.2z"/>
</g>
</svg>
