<?xml version="1.0" encoding="utf-8"?>
<!-- Generator: Adobe Illustrator 23.0.3, SVG Export Plug-In . SVG Version: 6.00 Build 0)  -->
<svg version="1.1" id="Layer_1" xmlns="http://www.w3.org/2000/svg" xmlns:xlink="http://www.w3.org/1999/xlink" x="0px" y="0px"
	 viewBox="0 0 348.95 98.73" style="enable-background:new 0 0 348.95 98.73;" xml:space="preserve">
<style type="text/css">
	.st0{fill:#FFFFFF;}
</style>
<g>
	<g>
		<path class="st0" d="M168.09,86.86l-4.05-11.74h1.54l2.91,8.7l3.18-8.7h0.6l3.26,8.7l2.84-8.7h1.54l-4.02,11.74h-0.71l-3.19-8.93
			l-3.16,8.93H168.09z"/>
		<path class="st0" d="M186.9,76.71c1.19-1.19,2.62-1.8,4.29-1.8s3.1,0.6,4.29,1.8c1.19,1.19,1.78,2.62,1.78,4.29
			c0,1.67-0.6,3.1-1.8,4.29c-1.19,1.18-2.64,1.76-4.34,1.76c-1.7,0-3.13-0.57-4.29-1.73c-1.15-1.16-1.71-2.57-1.71-4.26
			C185.12,79.36,185.71,77.9,186.9,76.71z M194.41,84.3c0.87-0.87,1.32-1.97,1.32-3.29s-0.44-2.43-1.32-3.32
			c-0.87-0.89-1.95-1.33-3.23-1.33c-1.27,0-2.35,0.44-3.22,1.35c-0.87,0.89-1.32,1.99-1.32,3.3c0,1.3,0.43,2.4,1.3,3.29
			c0.87,0.87,1.95,1.32,3.24,1.32C192.46,85.62,193.54,85.18,194.41,84.3z"/>
		<path class="st0" d="M210.24,86.86l-3.14-4.85h-1.65v4.85h-1.46V75.12h3.91c1.16,0,2.05,0.35,2.69,1.03
			c0.63,0.68,0.95,1.49,0.95,2.43c0,0.78-0.24,1.48-0.73,2.11c-0.49,0.64-1.18,1.05-2.06,1.22l3.33,4.94H210.24z M205.44,76.54v4.08
			h2.13c1.65,0,2.45-0.9,2.45-2.07c0-1.14-0.76-2.02-2.11-2.02H205.44z"/>
		<path class="st0" d="M225.92,86.86l-4.27-5.21l-1.62,1.92v3.29h-1.46V75.12h1.46v6.51l5.53-6.51h1.75l-4.68,5.54l5.13,6.19H225.92
			z"/>
		<path class="st0" d="M232.3,84.6l1.15-0.87c0.62,1.28,1.64,1.9,2.78,1.9c1.38,0,2.22-0.83,2.22-1.84c0-0.67-0.41-1.24-1.24-1.7
			c-0.22-0.13-0.64-0.32-1.22-0.59c-0.59-0.27-1.02-0.51-1.3-0.68c-1.16-0.75-1.75-1.67-1.75-2.78c0-0.89,0.32-1.63,0.95-2.22
			c0.63-0.6,1.48-0.9,2.51-0.9c1.44,0,2.57,0.59,3.4,1.75l-1.05,0.92c-0.62-0.86-1.4-1.29-2.33-1.29c-1.08,0-1.9,0.65-1.9,1.65
			c0,0.64,0.33,1.16,1,1.57c0.21,0.13,0.67,0.37,1.38,0.71c0.73,0.35,1.24,0.6,1.51,0.78c1.1,0.67,1.65,1.57,1.65,2.7
			c0,0.99-0.37,1.8-1.1,2.41c-0.71,0.62-1.62,0.92-2.71,0.92C234.58,87.05,233.05,86.19,232.3,84.6z"/>
		<path class="st0" d="M255.1,86.86V75.12h1.46v10.31h6.35v1.43H255.1z"/>
		<path class="st0" d="M269.48,76.55h-3.49v-1.43h8.46v1.43h-3.49v10.31h-1.48V76.55z"/>
		<path class="st0" d="M280.66,86.86V75.12h4.32c1.65,0,2.95,0.53,3.92,1.59c0.97,1.06,1.45,2.49,1.45,4.3
			c0,1.8-0.49,3.23-1.48,4.27c-0.99,1.05-2.33,1.57-4.05,1.57H280.66z M282.12,85.46h2.75c1.24,0,2.21-0.41,2.9-1.25
			c0.7-0.84,1.05-1.92,1.05-3.24c0-1.3-0.35-2.37-1.05-3.19c-0.68-0.84-1.65-1.26-2.89-1.26h-2.76V85.46z"/>
	</g>
	<g>
		<path class="st0" d="M107.52,16.22v9.84h14.47V66.9h10.29V26.06h14.47v-9.84H107.52z"/>
		<path class="st0" d="M168.6,28.52c-4.63,0-8.06,2-10.3,6.01v-4.98h-9.27V66.9h9.67V49.17c0-7.78,3.6-11.32,9.09-11.32
			c1.37,0,2.92,0.29,4.46,0.74l0.86-9.27C171.57,28.81,170.09,28.52,168.6,28.52z"/>
		<path class="st0" d="M176.67,29.55V66.9h9.67V29.55H176.67z"/>
		<polygon class="st0" points="181.52,14 186.7,21.83 181.52,27.01 176.34,21.83 		"/>
		<path class="st0" d="M220.19,14.79v19.05c-3.09-3.49-6.86-5.26-11.38-5.26c-5.32,0-9.67,1.83-13.27,5.6
			c-3.49,3.78-5.26,8.47-5.26,14.01c0,5.6,1.77,10.29,5.26,14.07c3.55,3.72,7.95,5.55,13.27,5.55c4.75,0,8.58-1.83,11.61-5.49v4.58
			h9.44v-52.1H220.19z M217.79,55.97c-1.94,2.06-4.4,3.03-7.49,3.03c-3.09,0-5.55-0.97-7.55-3.03c-1.89-2.17-2.86-4.69-2.86-7.78
			c0-3.03,0.97-5.55,2.86-7.61c2-2.12,4.46-3.15,7.55-3.15c3.09,0,5.55,1.03,7.49,3.15c1.94,2.06,2.86,4.58,2.86,7.61
			C220.65,51.28,219.73,53.8,217.79,55.97z"/>
		<path class="st0" d="M272.18,47.4c0-5.83-1.77-10.35-5.26-13.73c-3.49-3.37-8.01-5.09-13.44-5.09c-5.78,0-10.41,1.83-14.07,5.55
			c-3.6,3.72-5.43,8.35-5.43,14.07c0,5.43,1.72,10.07,5.26,13.84c3.49,3.78,8.46,5.72,15.04,5.72c6.18,0,11.61-1.72,16.36-5.15
			l-3.83-6.81c-3.26,2.23-8.06,3.77-12.07,3.77c-5.95,0-9.55-2.69-10.92-7.95h28.03C272.07,50.14,272.18,48.65,272.18,47.4z
			 M243.81,44.42c1.14-4.86,4.8-7.84,9.67-7.84c4.92,0,8.41,2.97,9.32,7.84H243.81z"/>
		<path class="st0" d="M309.07,32.58c-2.8-2.69-6.29-4.06-10.35-4.06c-5.32,0-9.78,2.57-11.73,6.23v-5.2h-9.49V66.9h9.67V46.88
			c0-5.55,3.43-9.44,8.58-9.44c4.75,0,7.89,3.26,7.89,9.27V66.9h9.67V44.08C313.3,39.1,311.87,35.21,309.07,32.58z"/>
		<path class="st0" d="M344.02,57.12c-2.29,1.32-4.4,1.89-6.23,1.89c-3.55,0-5.32-2.17-5.32-6.58V37.62h12.35l-8.12-8.06h-4.23
			V16.28h-9.61v13.27h-6.18v8.06h6.12v15.44c0,9.67,4.46,14.76,13.04,14.76c4.35,0,7.95-1.03,11.04-3.09L344.02,57.12z"/>
	</g>
	<g>
		<path class="st0" d="M39.08,60.19c0,0,7.51-6.41,8.61-16.32V17.56c0,0,0-0.01,0-0.01c-0.8,5.81-6.5,9.91-6.5,9.91h4.61
			c1.7,25.72-12.62,33.63-12.62,33.63c2.9-16.41-9.01-27.62-9.01-27.62c4.67-0.58,7.16,2.33,7.3,2.49c-2.3-6.2-12.21-5.1-12.21-5.1
			c16.2,19.5,6.39,39.08,3.01,44.61c-0.2,0.33,0.18,0.64,0.5,0.42c7.91-5.57,19.76-9.6,20.52-0.58c0.8,9.61-2.1,21.52-2.1,21.52
			h6.51V65.6L39.08,60.19z"/>
		<path class="st0" d="M56.3,60.19c0,0-7.51-6.41-8.61-16.32V17.56c0,0,0-0.01,0-0.01c0.8,5.81,6.5,9.91,6.5,9.91h-4.61
			c-1.7,25.72,12.62,33.63,12.62,33.63c-2.9-16.41,9.01-27.62,9.01-27.62c-4.67-0.58-7.16,2.33-7.3,2.49
			c2.3-6.2,12.21-5.1,12.21-5.1c-15.77,18.99-6.88,38.05-3.29,44.15c0.25,0.43-0.22,0.88-0.63,0.6c-7.9-5.42-19.37-9.16-20.11-0.3
			c-0.8,9.61,2.1,21.52,2.1,21.52h-6.51V65.6L56.3,60.19z"/>
		<g>
			<path class="st0" d="M47.82,1.9C22.59,1.9,2.07,22.45,2.07,47.68c0,22.13,15.8,40.64,36.7,44.84c0.19-1.13,0.42-2.46,0.65-3.94
				c-19-3.91-33.34-20.77-33.34-40.9c0-23.03,18.74-41.74,41.74-41.74s41.74,18.71,41.74,41.74c0,20.22-14.47,37.15-33.6,40.93
				c0.23,1.49,0.45,2.81,0.65,3.94c21.03-4.07,36.96-22.65,36.96-44.87C93.57,22.45,73.05,1.9,47.82,1.9z"/>
		</g>
	</g>
</g>
</svg>
