<?xml version="1.0" encoding="utf-8"?>
<!-- Generator: Adobe Illustrator 23.0.3, SVG Export Plug-In . SVG Version: 6.00 Build 0)  -->
<svg version="1.1" id="Layer_1" xmlns="http://www.w3.org/2000/svg" xmlns:xlink="http://www.w3.org/1999/xlink" x="0px" y="0px"
	 viewBox="0 0 30 30" style="enable-background:new 0 0 30 30;" xml:space="preserve">
<style type="text/css">
	.st0{fill:#FFFFFF;}
</style>
<path class="st0" d="M15,2.61C8.16,2.61,2.61,8.16,2.61,15S8.16,27.39,15,27.39S27.39,21.84,27.39,15S21.84,2.61,15,2.61z
	 M7.71,9.98c0.01-0.01,0.01-0.01,0.02-0.02c0.01,0,0.01-0.01,0.02-0.01c0.01,0,0.01-0.01,0.02-0.01c0.01,0,0.01-0.01,0.02-0.01
	c0.01,0,0.02-0.01,0.02-0.01c0.01,0,0.01-0.01,0.02-0.01c0.01,0,0.02-0.01,0.02-0.01c0.01,0,0.01,0,0.02-0.01
	c0.01,0,0.02-0.01,0.03-0.01c0.01,0,0.01,0,0.02-0.01c0.01,0,0.02,0,0.03-0.01c0.01,0,0.01,0,0.02,0c0.01,0,0.02,0,0.03,0
	c0.01,0,0.01,0,0.02,0c0.02,0,0.03,0,0.05,0h14.09c0.02,0,0.03,0,0.05,0c0.01,0,0.01,0,0.02,0c0.01,0,0.02,0,0.03,0
	c0.01,0,0.01,0,0.02,0c0.01,0,0.02,0,0.03,0.01c0.01,0,0.01,0,0.02,0.01c0.01,0,0.02,0.01,0.03,0.01c0.01,0,0.01,0,0.02,0.01
	c0.01,0,0.02,0.01,0.02,0.01c0.01,0,0.01,0.01,0.02,0.01c0.01,0,0.02,0.01,0.02,0.01c0.01,0,0.01,0.01,0.02,0.01
	c0.01,0,0.01,0.01,0.02,0.01c0.01,0,0.01,0.01,0.02,0.01c0.01,0.01,0.01,0.01,0.02,0.02c0,0,0.01,0.01,0.01,0.01l-7,7
	c-0.11,0.11-0.25,0.17-0.4,0.17c-0.15,0-0.3-0.06-0.4-0.17l-7-7C7.7,9.99,7.71,9.99,7.71,9.98z M7.49,11.4l3.61,3.61l-3.61,3.61
	V11.4z M22.15,20.15H8.07c-0.13,0-0.26-0.05-0.36-0.13l4.2-4.2l1.99,1.99c0.32,0.32,0.75,0.5,1.21,0.5c0.46,0,0.89-0.18,1.21-0.5
	l2-2l4.21,4.21C22.42,20.1,22.29,20.15,22.15,20.15z M22.72,18.6l-3.6-3.6l3.6-3.6V18.6z"/>
</svg>
