<?xml version="1.0" encoding="utf-8"?>
<!-- Generator: Adobe Illustrator 23.0.3, SVG Export Plug-In . SVG Version: 6.00 Build 0)  -->
<svg version="1.1" id="Layer_1" xmlns="http://www.w3.org/2000/svg" xmlns:xlink="http://www.w3.org/1999/xlink" x="0px" y="0px"
	 viewBox="0 0 30 30" style="enable-background:new 0 0 30 30;" xml:space="preserve">
<style type="text/css">
	.st0{fill:#FFFFFF;}
</style>
<path class="st0" d="M15,2.61C8.16,2.61,2.61,8.16,2.61,15S8.16,27.39,15,27.39S27.39,21.84,27.39,15S21.84,2.61,15,2.61z
	 M21.42,19.77c0,0.42-0.18,0.82-0.48,1.1c-0.31,0.28-0.72,0.42-1.14,0.38c-1.43-0.13-2.81-0.51-4.1-1.13
	c-1.26-0.6-2.4-1.4-3.38-2.39c-0.99-0.99-1.79-2.13-2.39-3.38c-0.62-1.29-0.99-2.67-1.13-4.1c0-0.05-0.01-0.09-0.01-0.14
	c0-0.37,0.14-0.73,0.39-1c0.28-0.31,0.68-0.48,1.1-0.48h1.99c0.76,0,1.39,0.56,1.47,1.31c0.05,0.44,0.14,0.88,0.27,1.3
	c0.16,0.53,0.02,1.1-0.37,1.49l-0.81,0.81c0.85,1.55,2.14,2.84,3.68,3.68l0.81-0.81c0.39-0.39,0.96-0.53,1.49-0.37
	c0.42,0.13,0.86,0.22,1.3,0.27c0.75,0.08,1.31,0.72,1.31,1.47V19.77z"/>
</svg>
